mtllib truck.mtl
g g0
v 0.717566 0.0680308 -1.26202
v 0.717566 0.248403 -1.16372
v 0.717566 0.248403 -1.8279
v 0.717566 -0.0197961 -1.49581
v 0.717566 0.0680308 -1.7296
v 1.01304 0.248403 -1.16384
v 1.01304 0.0681601 -1.26214
v 1.01304 0.248403 -1.82802
v 1.01304 -0.0196671 -1.49593
v 1.01304 0.248403 -1.49593
v 1.01304 0.0681601 -1.72972
v -0.717566 0.248403 -1.16372
v -0.717566 0.0680308 -1.26202
v -0.717566 0.248403 -1.8279
v -0.717566 -0.0197961 -1.49581
v -0.717566 0.0680308 -1.7296
v -1.01304 0.0681601 -1.26214
v -1.01304 0.248403 -1.16384
v -1.01304 0.248403 -1.82802
v -1.01304 0.0681601 -1.72972
v -1.01304 0.248403 -1.49593
v -1.01304 -0.0196671 -1.49593
v 0.956873 0.484423 0.783181
v 0.956873 0.248403 0.783181
v 0.956873 1.15525 0.783181
v 0.956873 1.01364 2.11744
v 0.956873 0.248403 2.22913
v 0.956873 0.484423 2.13693
v 0.956873 0.484423 2.22904
v 0.956873 1.15525 1.84159
v 0.930078 1.70865 1.70891
v 0.930078 1.70865 0.783181
v -0.956873 0.484423 0.783181
v -0.956873 1.15525 0.783181
v -7.15256e-007 1.07601 2.14852
v -0.956873 1.01364 2.11744
v -0.956873 0.248403 2.22913
v -7.15256e-007 0.248403 2.27082
v -0.956873 0.484423 2.13693
v -7.15256e-007 0.484423 2.27082
v -0.956873 0.484423 2.22904
v -7.15256e-007 0.484423 2.17872
v -0.956873 1.15525 1.84159
v -7.15256e-007 1.22311 1.90363
v -7.15256e-007 1.76454 0.783181
v -0.930079 1.70865 1.70891
v -0.930079 1.70865 0.783181
v -7.15256e-007 1.76454 1.74512
v 0.717566 0.248403 1.06506
v 0.717566 0.0680308 1.16336
v 0.717566 -0.0197961 1.39715
v 0.717566 0.0680308 1.63094
v 0.717566 0.248403 1.72924
v 0.956873 0.248403 1.06494
v 0.956873 0.0681601 1.16324
v 0.956873 -0.0196671 1.39703
v 0.956873 0.248403 1.72912
v 0.956873 0.248403 1.39703
v 0.956873 0.0681601 1.63082
v -0.717566 0.248403 1.06506
v -0.717566 0.0680308 1.16336
v -0.717566 -0.0197961 1.39715
v -0.717566 0.248403 1.72924
v -0.717566 0.0680308 1.63094
v -0.956873 0.248403 1.06494
v -0.956873 0.0681601 1.16324
v -0.956873 -0.0196671 1.39703
v -0.956873 0.0681601 1.63082
v -0.956873 0.248403 1.39703
v -0.956873 0.248403 1.72912
v 1.01304 0.248403 -2.27082
v -1.01304 0.248403 -2.27082
v -1.01304 0.248403 0.783181
v 1.01304 0.248403 0.783181
v 1.01304 2.4198 0.783181
v -1.01304 2.4198 -2.27082
v 1.01304 2.4198 -2.27082
v -1.01304 2.4198 0.783181
vn 0.000542741 -0.75476 0.656
vn 0.000484349 -0.992251 0.124249
vn 0.000382484 -0.99225 -0.124256
vn 0.000484349 -0.992251 0.124249
vn 0.000542741 -0.75476 0.656
vn 0.000598988 -0.754711 0.656057
vn 0.000542741 -0.75476 0.656
vn 0.000464183 -0.478667 0.877996
vn 0.000598988 -0.754711 0.656057
vn 0.000464183 -0.478667 0.877996
vn 0.000542741 -0.75476 0.656
vn 0.000359158 -0.4788 0.877924
vn -0.000254488 -0.478667 -0.877996
vn 5.53945e-006 -0.754758 -0.656003
vn -0.000358508 -0.478536 -0.878068
vn 5.53945e-006 -0.754758 -0.656003
vn -0.000254488 -0.478667 -0.877996
vn 6.12314e-005 -0.754807 -0.655947
vn 0.000382484 -0.99225 -0.124256
vn 5.53945e-006 -0.754758 -0.656003
vn 6.12314e-005 -0.754807 -0.655947
vn 5.53945e-006 -0.754758 -0.656003
vn 0.000382484 -0.99225 -0.124256
vn 0.000484349 -0.992251 0.124249
vn 1 0 0
vn 1 0 0
vn 1 0 0
vn 1 0 0
vn 1 0 0
vn 1 0 0
vn 1 0 0
vn 1 0 0
vn 1 0 0
vn 1 0 0
vn 1 0 0
vn 1 0 0
vn -0.000484349 -0.992251 0.124249
vn -0.000591395 -0.829779 0.558091
vn -0.000382484 -0.99225 -0.124256
vn -0.000591395 -0.829779 0.558091
vn -0.000484349 -0.992251 0.124249
vn -0.000523084 -0.668294 0.743897
vn -0.000523084 -0.668294 0.743897
vn -0.000464241 -0.478667 0.877996
vn -0.000591395 -0.829779 0.558091
vn -0.000464241 -0.478667 0.877996
vn -0.000523084 -0.668294 0.743897
vn -0.000359217 -0.478534 0.878069
vn 0.000254546 -0.478667 -0.877996
vn 8.60638e-005 -0.668292 -0.743899
vn 0.00035845 -0.478799 -0.877925
vn 8.60638e-005 -0.668292 -0.743899
vn 0.000254546 -0.478667 -0.877996
vn -0.000133807 -0.829724 -0.558174
vn -0.000133807 -0.829724 -0.558174
vn -0.000382484 -0.99225 -0.124256
vn 8.60638e-005 -0.668292 -0.743899
vn -0.000382484 -0.99225 -0.124256
vn -0.000133807 -0.829724 -0.558174
vn -0.000484349 -0.992251 0.124249
vn -1 0 0
vn -1 0 0
vn -1 0 0
vn -1 0 0
vn -1 0 0
vn -1 0 0
vn -1 0 0
vn -1 0 0
vn -1 0 0
vn -1 0 0
vn -1 0 0
vn -1 0 0
vn 1 0 0
vn 1 0 0
vn 1 0 0
vn 1 0 0
vn 1 0 0
vn 0.99987 0.0161251 0
vn 0.99987 0.0161251 0
vn 1 0 0
vn 0.99948 0.0322501 0
vn 1 0 0
vn 1 0 0
vn 1 0 0
vn 1 0 0
vn 1 0 0
vn 1 0 0
vn 1 0 0
vn 1 0 0
vn 1 0 0
vn 0.99948 0.0322501 0
vn 0.99883 0.0483626 0
vn 0.99987 0.0161251 0
vn 0.99883 0.0483626 0
vn 0.99948 0.0322501 0
vn 0.99883 0.0483626 0
vn 0.0392094 0.0438588 0.998268
vn 0.0142328 0.0462487 0.998828
vn -0.0119337 0.0462512 0.998859
vn 0.0142328 0.0462487 0.998828
vn 0.0392094 0.0438588 0.998268
vn 0.0348442 0.0367896 0.998715
vn -5.9844e-008 0.873905 0.486096
vn 0.0824056 0.870933 0.484443
vn 0.0922992 0.885823 0.454752
vn 0.0824056 0.870933 0.484443
vn -4.53579e-008 0.723871 0.689935
vn -5.22913e-008 0.857248 0.514903
vn 0.0435757 0.000191748 0.99905
vn 0.0145218 0.00012794 0.999895
vn -0.0145533 0.000127941 0.999894
vn 0.0145218 0.00012794 0.999895
vn 0.0435757 0.000191748 0.99905
vn 0.0436229 0.000383496 0.999048
vn 0 1 0
vn 0 1 0
vn 0 1 0
vn 0 1 0
vn 0 1 0
vn 0 1 0
vn -3.59303e-008 0.489966 0.871742
vn 0.0668728 0.258391 0.963723
vn -5.59615e-009 0.28097 0.959717
vn 0.0668728 0.258391 0.963723
vn -2.70782e-008 0.25897 0.965885
vn 0.079533 0.236048 0.968481
vn -4.66501e-009 1 0
vn 0.0599887 0.998199 0
vn -5.59802e-009 1 0
vn 0.0599887 0.998199 0
vn -4.66501e-009 1 0
vn 0.0599887 0.998199 0
vn -0.98787 0.15528 0
vn -1 0 0
vn -0.998306 0.0581746 0
vn -0.99987 0.0161243 0
vn -0.998306 0.0581746 0
vn -1 0 0
vn -0.99948 0.0322486 0
vn -0.998306 0.0581746 0
vn -0.99987 0.0161243 0
vn -0.999246 1.48996e-005 0.0388151
vn -0.992989 0.116578 0.0195443
vn -0.993134 0.116569 0.00977173
vn -0.98787 0.15528 0
vn -0.993134 0.116569 0.00977173
vn -0.992989 0.116578 0.0195443
vn -0.998306 0.0581746 0
vn -0.993134 0.116569 0.00977173
vn -0.98787 0.15528 0
vn -0.99987 0.0161243 0
vn -0.99883 0.0483603 0
vn -0.99948 0.0322486 0
vn -0.99883 0.0483603 0
vn -0.99948 0.0322486 0
vn -0.99883 0.0483603 0
vn -0.0119337 0.0462512 0.998859
vn -0.0396735 0.0438603 0.99825
vn -0.043599 0.0367769 0.998372
vn -0.0396735 0.0438603 0.99825
vn -0.0119337 0.0462512 0.998859
vn 0.0142328 0.0462487 0.998828
vn -0.0824058 0.870933 0.484443
vn -6.17141e-008 0.873905 0.486096
vn -0.0922993 0.885822 0.454752
vn -4.40238e-008 0.723871 0.689935
vn -0.0824058 0.870933 0.484443
vn -5.22913e-008 0.857248 0.514903
vn -0.0145533 0.000127941 0.999894
vn -0.0435758 0.000191749 0.99905
vn -0.0435286 0.000383498 0.999052
vn -0.0435758 0.000191749 0.99905
vn -0.0145533 0.000127941 0.999894
vn 0.0145218 0.00012794 0.999895
vn 0 1 0
vn 0 1 0
vn 0 1 0
vn 0 1 0
vn 0 1 0
vn 0 1 0
vn -2.89456e-008 0.25897 0.965885
vn -0.0668729 0.258391 0.963723
vn -0.0795331 0.236048 0.968481
vn -0.0668729 0.258391 0.963723
vn -4.12533e-008 0.489966 0.871742
vn -5.59615e-009 0.28097 0.959717
vn -0.0599887 0.998199 0
vn -4.66501e-009 1 0
vn -5.59802e-009 1 0
vn -4.66501e-009 1 0
vn -0.0599887 0.998199 0
vn -0.0599887 0.998199 0
vn -0.000314656 -0.478667 -0.877997
vn 6.69979e-006 -0.754758 -0.656003
vn -0.000444403 -0.478534 -0.878069
vn 6.69979e-006 -0.754758 -0.656003
vn -0.000314656 -0.478667 -0.877997
vn 7.62567e-005 -0.754808 -0.655946
vn 0.00047238 -0.99225 -0.124256
vn 6.69978e-006 -0.754758 -0.656003
vn 7.62567e-005 -0.754808 -0.655946
vn 6.69978e-006 -0.754758 -0.656003
vn 0.00047238 -0.99225 -0.124256
vn 0.000598028 -0.992251 0.12425
vn 0.000670125 -0.754761 0.656
vn 0.000598028 -0.992251 0.12425
vn 0.00047238 -0.99225 -0.124256
vn 0.000598028 -0.992251 0.12425
vn 0.000670125 -0.754761 0.656
vn 0.000739574 -0.754711 0.656057
vn 0.000670125 -0.754761 0.656
vn 0.00057313 -0.478668 0.877996
vn 0.000739574 -0.754711 0.656057
vn 0.00057313 -0.478668 0.877996
vn 0.000670125 -0.754761 0.656
vn 0.000443455 -0.4788 0.877924
vn 1 0 0
vn 1 0 0
vn 1 0 0
vn 1 0 0
vn 1 0 0
vn 1 0 0
vn 1 0 0
vn 1 0 0
vn 1 0 0
vn 1 0 0
vn 1 0 0
vn 1 0 0
vn 0.000314727 -0.478667 -0.877997
vn 0.000106449 -0.668292 -0.743899
vn 0.000444329 -0.4788 -0.877924
vn 0.000106449 -0.668292 -0.743899
vn 0.000314727 -0.478667 -0.877997
vn -0.000165644 -0.829724 -0.558174
vn -0.000165644 -0.829724 -0.558174
vn -0.00047238 -0.99225 -0.124256
vn 0.000106449 -0.668292 -0.743899
vn -0.00047238 -0.99225 -0.124256
vn -0.000165644 -0.829724 -0.558174
vn -0.000598028 -0.992251 0.12425
vn -0.000598028 -0.992251 0.12425
vn -0.000730199 -0.829779 0.558091
vn -0.00047238 -0.99225 -0.124256
vn -0.000730199 -0.829779 0.558091
vn -0.000598028 -0.992251 0.12425
vn -0.000645855 -0.668294 0.743897
vn -0.000645855 -0.668294 0.743897
vn -0.000573201 -0.478668 0.877996
vn -0.000730199 -0.829779 0.558091
vn -0.000573201 -0.478668 0.877996
vn -0.000645855 -0.668294 0.743897
vn -0.000443528 -0.478535 0.878068
vn -1 0 0
vn -1 0 0
vn -1 0 0
vn -1 0 0
vn -1 0 0
vn -1 0 0
vn -1 0 0
vn -1 0 0
vn -1 0 0
vn -1 0 0
vn -1 0 0
vn -1 0 0
vn 1 0 0
vn 1 0 0
vn 1 0 0
vn 1 0 0
vn 1 0 0
vn 1 0 0
vn -1 0 0
vn -1 0 0
vn -1 0 0
vn -1 0 0
vn -1 0 0
vn -0.993134 0.116569 0.00977173
vn 0 0 -1
vn 0 0 -1
vn 0 0 -1
vn 0 0 -1
vn 0 0 -1
vn 0 0 -1
vn -8.82561e-008 -8.23499e-008 1
vn -8.82561e-008 -8.23499e-008 1
vn 0 0 1
vn -8.82561e-008 -8.23499e-008 1
vn -8.82561e-008 -8.23499e-008 1
vn -1.76512e-007 -1.647e-007 1
vn 0 1 0
vn 0 1 0
vn 0 1 0
vn 0 1 0
vn 0 1 0
vn 0 1 0
vt 0.262275 0.559819
vt 0.241607 0.548332
vt 0.262275 0.548349
vt 0.241607 0.548332
vt 0.262275 0.559819
vt 0.241607 0.559802
vt 0.262275 0.559819
vt 0.241607 0.583341
vt 0.241607 0.559802
vt 0.241607 0.583341
vt 0.262275 0.559819
vt 0.262275 0.583357
vt 0.262275 0.583357
vt 0.241607 0.559802
vt 0.241607 0.583341
vt 0.241607 0.559802
vt 0.262275 0.583357
vt 0.262275 0.559819
vt 0.262275 0.548349
vt 0.241607 0.559802
vt 0.262275 0.559819
vt 0.241607 0.559802
vt 0.262275 0.548349
vt 0.241607 0.548332
vt 0.828512 0.543854
vt 0.777142 0.506857
vt 0.828512 0.488829
vt 0.777142 0.506857
vt 0.828512 0.543854
vt 0.755543 0.543854
vt 0.828512 0.543854
vt 0.87988 0.506857
vt 0.901479 0.543854
vt 0.87988 0.506857
vt 0.828512 0.543854
vt 0.828512 0.488829
vt 0.262275 0.548332
vt 0.241607 0.559819
vt 0.241607 0.548349
vt 0.241607 0.559819
vt 0.262275 0.548332
vt 0.262275 0.559802
vt 0.262275 0.559802
vt 0.241607 0.583357
vt 0.241607 0.559819
vt 0.241607 0.583357
vt 0.262275 0.559802
vt 0.262275 0.583341
vt 0.262275 0.583341
vt 0.241607 0.559819
vt 0.241607 0.583357
vt 0.241607 0.559819
vt 0.262275 0.583341
vt 0.262275 0.559802
vt 0.262275 0.559802
vt 0.241607 0.548349
vt 0.241607 0.559819
vt 0.241607 0.548349
vt 0.262275 0.559802
vt 0.262275 0.548332
vt 0.828512 0.488829
vt 0.777142 0.506857
vt 0.828512 0.543854
vt 0.755543 0.543854
vt 0.828512 0.543854
vt 0.777142 0.506857
vt 0.901479 0.543854
vt 0.87988 0.506857
vt 0.828512 0.543854
vt 0.828512 0.488829
vt 0.828512 0.543854
vt 0.87988 0.506857
vt 0.327735 0.592301
vt 0.0345674 0.700932
vt 0.0302839 0.592301
vt 0.0345674 0.700932
vt 0.327735 0.592301
vt 0.0951781 0.729999
vt 0.0951781 0.729999
vt 0.327735 0.592301
vt 0.327735 0.729999
vt 0.327735 0.543854
vt 0.010046 0.592301
vt 0.010026 0.543854
vt 0.010046 0.592301
vt 0.327735 0.543854
vt 0.0302839 0.592301
vt 0.0302839 0.592301
vt 0.327735 0.543854
vt 0.327735 0.592301
vt 0.327735 0.729999
vt 0.124331 0.843592
vt 0.0951781 0.729999
vt 0.124331 0.843592
vt 0.327735 0.729999
vt 0.327735 0.843592
vt 0.487602 0.0537306
vt 0.250977 0.183418
vt 0.250977 0.0537306
vt 0.250977 0.183418
vt 0.487602 0.0537306
vt 0.487602 0.170095
vt 0.250977 0.214841
vt 0.487602 0.170095
vt 0.487602 0.200346
vt 0.487602 0.170095
vt 0.250977 0.214841
vt 0.250977 0.183418
vt 0.487602 0.00662366
vt 0.250977 0.0537306
vt 0.250977 0.00662366
vt 0.250977 0.0537306
vt 0.487602 0.00662366
vt 0.487602 0.0537306
vt 0.250977 0.0537306
vt 0.487602 0.0537306
vt 0.487602 0.0537306
vt 0.487602 0.0537306
vt 0.250977 0.0537306
vt 0.250977 0.0537306
vt 0.250977 0.214841
vt 0.480976 0.318563
vt 0.250977 0.330503
vt 0.480976 0.318563
vt 0.250977 0.214841
vt 0.487602 0.200346
vt 0.179741 0.864806
vt 0.301576 0.994078
vt 0.179741 0.994078
vt 0.301576 0.994078
vt 0.179741 0.864806
vt 0.301576 0.869672
vt 0.0302839 0.592301
vt 0.0345674 0.700932
vt 0.327735 0.592301
vt 0.0951781 0.729999
vt 0.327735 0.592301
vt 0.0345674 0.700932
vt 0.327735 0.729999
vt 0.327735 0.592301
vt 0.0951781 0.729999
vt 0.010026 0.543854
vt 0.010046 0.592301
vt 0.327735 0.543854
vt 0.0302839 0.592301
vt 0.327735 0.543854
vt 0.010046 0.592301
vt 0.327735 0.592301
vt 0.327735 0.543854
vt 0.0302839 0.592301
vt 0.0951781 0.729999
vt 0.124331 0.843592
vt 0.327735 0.729999
vt 0.327735 0.843592
vt 0.327735 0.729999
vt 0.124331 0.843592
vt 0.250977 0.0537306
vt 0.0143512 0.170095
vt 0.0143512 0.0537306
vt 0.0143512 0.170095
vt 0.250977 0.0537306
vt 0.250977 0.183418
vt 0.0143512 0.170095
vt 0.250977 0.214841
vt 0.0143512 0.200346
vt 0.250977 0.214841
vt 0.0143512 0.170095
vt 0.250977 0.183418
vt 0.250977 0.00662366
vt 0.0143512 0.0537306
vt 0.0143512 0.00662366
vt 0.0143512 0.0537306
vt 0.250977 0.00662366
vt 0.250977 0.0537306
vt 0.0143512 0.0537306
vt 0.250977 0.0537306
vt 0.0143512 0.0537306
vt 0.250977 0.0537306
vt 0.0143512 0.0537306
vt 0.250977 0.0537306
vt 0.250977 0.214841
vt 0.0209771 0.318563
vt 0.0143512 0.200346
vt 0.0209771 0.318563
vt 0.250977 0.214841
vt 0.250977 0.330503
vt 0.0579052 0.994078
vt 0.179741 0.864806
vt 0.179741 0.994078
vt 0.179741 0.864806
vt 0.0579052 0.994078
vt 0.0579052 0.869672
vt 0.262275 0.583357
vt 0.241607 0.559802
vt 0.241607 0.583341
vt 0.241607 0.559802
vt 0.262275 0.583357
vt 0.262275 0.559819
vt 0.262275 0.548349
vt 0.241607 0.559802
vt 0.262275 0.559819
vt 0.241607 0.559802
vt 0.262275 0.548349
vt 0.241607 0.548332
vt 0.262275 0.559819
vt 0.241607 0.548332
vt 0.262275 0.548349
vt 0.241607 0.548332
vt 0.262275 0.559819
vt 0.241607 0.559802
vt 0.262275 0.559819
vt 0.241607 0.583341
vt 0.241607 0.559802
vt 0.241607 0.583341
vt 0.262275 0.559819
vt 0.262275 0.583357
vt 0.192858 0.543854
vt 0.244227 0.506857
vt 0.265826 0.543854
vt 0.244227 0.506857
vt 0.192858 0.543854
vt 0.192858 0.488829
vt 0.192858 0.543854
vt 0.141489 0.506857
vt 0.192858 0.488829
vt 0.141489 0.506857
vt 0.192858 0.543854
vt 0.11989 0.543854
vt 0.262275 0.583341
vt 0.241607 0.559819
vt 0.241607 0.583357
vt 0.241607 0.559819
vt 0.262275 0.583341
vt 0.262275 0.559802
vt 0.262275 0.559802
vt 0.241607 0.548349
vt 0.241607 0.559819
vt 0.241607 0.548349
vt 0.262275 0.559802
vt 0.262275 0.548332
vt 0.262275 0.548332
vt 0.241607 0.559819
vt 0.241607 0.548349
vt 0.241607 0.559819
vt 0.262275 0.548332
vt 0.262275 0.559802
vt 0.262275 0.559802
vt 0.241607 0.583357
vt 0.241607 0.559819
vt 0.241607 0.583357
vt 0.262275 0.559802
vt 0.262275 0.583341
vt 0.265826 0.543854
vt 0.244227 0.506857
vt 0.192858 0.543854
vt 0.192858 0.488829
vt 0.192858 0.543854
vt 0.244227 0.506857
vt 0.192858 0.488829
vt 0.141489 0.506857
vt 0.192858 0.543854
vt 0.11989 0.543854
vt 0.192858 0.543854
vt 0.141489 0.506857
vt 0.327735 0.543854
vt 0.998773 0.989566
vt 0.327735 0.989566
vt 0.998773 0.989566
vt 0.327735 0.543854
vt 0.998773 0.543854
vt 0.998773 0.543854
vt 0.327735 0.989566
vt 0.998773 0.989566
vt 0.327735 0.989566
vt 0.998773 0.543854
vt 0.327735 0.543854
vt 0.520564 0.0503966
vt 0.982583 0.462876
vt 0.982583 0.0503966
vt 0.982583 0.462876
vt 0.520564 0.0503966
vt 0.520564 0.462876
vt 0.274903 0.530372
vt 0.513466 0.342175
vt 0.513466 0.530372
vt 0.513466 0.342175
vt 0.274903 0.530372
vt 0.274903 0.342175
vt 0.505348 0.525914
vt 0.282369 0.348987
vt 0.505348 0.348987
vt 0.282369 0.348987
vt 0.505348 0.525914
vt 0.282369 0.525914
usemtl acmat_0
f 7/1/1 4/2/2 9/3/3
f 4/4/4 7/5/5 1/6/6
f 7/7/7 2/8/8 1/9/9
f 2/10/10 7/11/11 6/12/12
f 8/13/13 5/14/14 3/15/15
f 5/16/16 8/17/17 11/18/18
f 9/19/19 5/20/20 11/21/21
f 5/22/22 9/23/23 4/24/24
f 10/25/25 7/26/26 9/27/27
f 7/28/28 10/29/29 6/30/30
f 10/31/31 11/32/32 8/33/33
f 11/34/34 10/35/35 9/36/36
f 15/37/37 17/38/38 22/39/39
f 17/40/40 15/41/41 13/42/42
f 13/43/43 18/44/44 17/45/45
f 18/46/46 13/47/47 12/48/48
f 14/49/49 20/50/50 19/51/51
f 20/52/52 14/53/53 16/54/54
f 16/55/55 22/56/56 20/57/57
f 22/58/58 16/59/59 15/60/60
f 22/61/61 17/62/62 21/63/63
f 18/64/64 21/65/65 17/66/66
f 19/67/67 20/68/68 21/69/69
f 22/70/70 21/71/71 20/72/72
f 23/73/73 26/74/74 28/75/75
f 26/76/76 23/77/77 30/78/78
f 30/79/79 23/80/80 25/81/81
f 24/82/82 29/83/83 27/84/84
f 29/85/85 24/86/86 28/87/87
f 28/88/88 24/89/89 23/90/90
f 25/91/91 31/92/92 30/93/93
f 31/94/94 25/95/95 32/96/96
f 28/97/97 35/98/98 42/99/99
f 35/100/100 28/101/101 26/102/102
f 44/103/103 26/104/104 30/105/105
f 26/106/106 44/107/107 35/108/108
f 27/109/109 40/110/110 38/111/111
f 40/112/112 27/113/113 29/114/114
f 42/115/115 29/116/116 28/117/117
f 29/118/118 42/119/119 40/120/120
f 44/121/121 31/122/122 48/123/123
f 31/124/124 44/125/125 30/126/126
f 48/127/127 32/128/128 45/129/129
f 32/130/130 48/131/131 31/132/132
f 39/133/133 36/134/134 33/135/135
f 43/136/136 33/137/137 36/138/138
f 34/139/139 33/140/140 43/141/141
f 37/142/142 41/143/143 73/144/144
f 39/145/145 73/146/146 41/147/147
f 33/148/148 73/149/149 39/150/150
f 43/151/151 46/152/152 34/153/153
f 47/154/154 34/155/155 46/156/156
f 42/157/157 36/158/158 39/159/159
f 36/160/160 42/161/161 35/162/162
f 36/163/163 44/164/164 43/165/165
f 44/166/166 36/167/167 35/168/168
f 38/169/169 41/170/170 37/171/171
f 41/172/172 38/173/173 40/174/174
f 41/175/175 42/176/176 39/177/177
f 42/178/178 41/179/179 40/180/180
f 44/181/181 46/182/182 43/183/183
f 46/184/184 44/185/185 48/186/186
f 47/187/187 48/188/188 45/189/189
f 48/190/190 47/191/191 46/192/192
f 54/193/193 50/194/194 49/195/195
f 50/196/196 54/197/197 55/198/198
f 56/199/199 50/200/200 55/201/201
f 50/202/202 56/203/203 51/204/204
f 59/205/205 51/206/206 56/207/207
f 51/208/208 59/209/209 52/210/210
f 59/211/211 53/212/212 52/213/213
f 53/214/214 59/215/215 57/216/216
f 58/217/217 55/218/218 54/219/219
f 55/220/220 58/221/221 56/222/222
f 58/223/223 59/224/224 56/225/225
f 59/226/226 58/227/227 57/228/228
f 60/229/229 66/230/230 65/231/231
f 66/232/232 60/233/233 61/234/234
f 61/235/235 67/236/236 66/237/237
f 67/238/238 61/239/239 62/240/240
f 62/241/241 68/242/242 67/243/243
f 68/244/244 62/245/245 64/246/246
f 64/247/247 70/248/248 68/249/249
f 70/250/250 64/251/251 63/252/252
f 65/253/253 66/254/254 69/255/255
f 67/256/256 69/257/257 66/258/258
f 67/259/259 68/260/260 69/261/261
f 70/262/262 69/263/263 68/264/264
f 74/265/265 77/266/266 75/267/267
f 77/268/268 74/269/269 71/270/270
f 72/271/271 78/272/272 76/273/273
f 78/274/274 72/275/275 73/276/276
f 72/277/277 77/278/278 71/279/279
f 77/280/280 72/281/281 76/282/282
f 78/283/283 74/284/284 75/285/285
f 74/286/286 78/287/287 73/288/288
f 77/289/289 78/290/290 75/291/291
f 78/292/292 77/293/293 76/294/294
